  0
SECTION
  2
HEADER
  9
$ACADVER
  1
AC1009
  9
$DWGCODEPAGE
  3
ansi_1252
  9
$INSBASE
 10
0.0
 20
0.0
 30
0.0
  9
$EXTMIN
 10
-32.5
 20
-27.0
 30
0.0
  9
$EXTMAX
 10
12.5271732748
 20
10.8396227551
 30
0.0
  9
$LIMMIN
 10
0.0
 20
0.0
  9
$LIMMAX
 10
420.0
 20
297.0
  9
$ORTHOMODE
 70
     0
  9
$REGENMODE
 70
     1
  9
$FILLMODE
 70
     1
  9
$QTEXTMODE
 70
     0
  9
$MIRRTEXT
 70
     1
  9
$DRAGMODE
 70
     2
  9
$LTSCALE
 40
1.0
  9
$OSMODE
 70
    37
  9
$ATTMODE
 70
     1
  9
$TEXTSIZE
 40
0.3175
  9
$TRACEWID
 40
1.0
  9
$TEXTSTYLE
  7
STANDARD
  9
$CLAYER
  8
0
  9
$CELTYPE
  6
BYLAYER
  9
$CECOLOR
 62
   256
  9
$DIMSCALE
 40
1.0
  9
$DIMASZ
 40
0.3302
  9
$DIMEXO
 40
0.127
  9
$DIMDLI
 40
3.75
  9
$DIMRND
 40
0.0
  9
$DIMDLE
 40
0.0
  9
$DIMEXE
 40
0.3175
  9
$DIMTP
 40
0.0
  9
$DIMTM
 40
0.0
  9
$DIMTXT
 40
0.3175
  9
$DIMCEN
 40
2.5
  9
$DIMTSZ
 40
0.0
  9
$DIMTOL
 70
     0
  9
$DIMLIM
 70
     0
  9
$DIMTIH
 70
     1
  9
$DIMTOH
 70
     1
  9
$DIMSE1
 70
     0
  9
$DIMSE2
 70
     0
  9
$DIMTAD
 70
     0
  9
$DIMZIN
 70
     0
  9
$DIMBLK
  1

  9
$DIMASO
 70
     1
  9
$DIMSHO
 70
     1
  9
$DIMPOST
  1

  9
$DIMAPOST
  1

  9
$DIMALT
 70
     0
  9
$DIMALTD
 70
     3
  9
$DIMALTF
 40
0.3937007874
  9
$DIMLFAC
 40
1.0
  9
$DIMTOFL
 70
     1
  9
$DIMTVP
 40
0.0
  9
$DIMTIX
 70
     0
  9
$DIMSOXD
 70
     0
  9
$DIMSAH
 70
     0
  9
$DIMBLK1
  1

  9
$DIMBLK2
  1

  9
$DIMSTYLE
  2
ISO-25
  9
$DIMCLRD
 70
     0
  9
$DIMCLRE
 70
     0
  9
$DIMCLRT
 70
     0
  9
$DIMTFAC
 40
1.0
  9
$DIMGAP
 40
0.1524
  9
$LUNITS
 70
     2
  9
$LUPREC
 70
     2
  9
$SKETCHINC
 40
1.0
  9
$FILLETRAD
 40
10.0
  9
$AUNITS
 70
     0
  9
$AUPREC
 70
     2
  9
$MENU
  1
.
  9
$ELEVATION
 40
0.0
  9
$PELEVATION
 40
0.0
  9
$THICKNESS
 40
0.0
  9
$LIMCHECK
 70
     0
  9
$CHAMFERA
 40
10.0
  9
$CHAMFERB
 40
10.0
  9
$SKPOLY
 70
     0
  9
$TDCREATE
 40
2456738.505633102
  9
$TDUPDATE
 40
2456738.505786748
  9
$TDINDWG
 40
0.0000000116
  9
$TDUSRTIMER
 40
0.0000000116
  9
$USRTIMER
 70
     1
  9
$ANGBASE
 50
0.0
  9
$ANGDIR
 70
     0
  9
$PDMODE
 70
     0
  9
$PDSIZE
 40
-1.0
  9
$PLINEWID
 40
0.0
  9
$COORDS
 70
     1
  9
$SPLFRAME
 70
     0
  9
$SPLINETYPE
 70
     6
  9
$SPLINESEGS
 70
     8
  9
$ATTDIA
 70
     0
  9
$ATTREQ
 70
     1
  9
$HANDLING
 70
     1
  9
$HANDSEED
  5
7F
  9
$SURFTAB1
 70
     6
  9
$SURFTAB2
 70
     6
  9
$SURFTYPE
 70
     6
  9
$SURFU
 70
     6
  9
$SURFV
 70
     6
  9
$UCSNAME
  2

  9
$UCSORG
 10
0.0
 20
0.0
 30
0.0
  9
$UCSXDIR
 10
1.0
 20
0.0
 30
0.0
  9
$UCSYDIR
 10
0.0
 20
1.0
 30
0.0
  9
$PUCSNAME
  2

  9
$PUCSORG
 10
0.0
 20
0.0
 30
0.0
  9
$PUCSXDIR
 10
1.0
 20
0.0
 30
0.0
  9
$PUCSYDIR
 10
0.0
 20
1.0
 30
0.0
  9
$USERI1
 70
     0
  9
$USERI2
 70
     0
  9
$USERI3
 70
     0
  9
$USERI4
 70
     0
  9
$USERI5
 70
     0
  9
$USERR1
 40
0.0
  9
$USERR2
 40
0.0
  9
$USERR3
 40
0.0
  9
$USERR4
 40
0.0
  9
$USERR5
 40
0.0
  9
$WORLDVIEW
 70
     1
  9
$SHADEDGE
 70
     3
  9
$SHADEDIF
 70
    70
  9
$TILEMODE
 70
     1
  9
$MAXACTVP
 70
    64
  9
$PLIMCHECK
 70
     0
  9
$PEXTMIN
 10
1.0000000000E+20
 20
1.0000000000E+20
 30
1.0000000000E+20
  9
$PEXTMAX
 10
-1.0000000000E+20
 20
-1.0000000000E+20
 30
-1.0000000000E+20
  9
$PLIMMIN
 10
0.0
 20
0.0
  9
$PLIMMAX
 10
420.0
 20
297.0
  9
$UNITMODE
 70
     0
  9
$VISRETAIN
 70
     1
  9
$PLINEGEN
 70
     0
  9
$PSLTSCALE
 70
     1
  0
ENDSEC
  0
SECTION
  2
TABLES
  0
TABLE
  2
VPORT
 70
     1
  0
VPORT
  2
*ACTIVE
 70
     0
 10
0.0
 20
0.0
 11
1.0
 21
1.0
 12
-9.9864133626
 22
-8.0801886224
 13
0.0
 23
0.0
 14
10.0
 24
10.0
 15
10.0
 25
10.0
 16
0.0
 26
0.0
 36
1.0
 17
0.0
 27
0.0
 37
0.0
 40
38.5964152102
 41
1.1899477319
 42
50.0
 43
0.0
 44
0.0
 50
0.0
 51
0.0
 71
     0
 72
   100
 73
     1
 74
     3
 75
     0
 76
     0
 77
     0
 78
     0
  0
ENDTAB
  0
TABLE
  2
LTYPE
 70
     6
  0
LTYPE
  2
CONTINUOUS
 70
     0
  3
Solid line
 72
    65
 73
     0
 40
0.0
  0
LTYPE
  2
HIDDEN
 70
     0
  3
Hidden __ __ __ __ __ __ __ __ __ __ __ __ __ __
 72
    65
 73
     2
 40
0.1905
 49
0.127
 49
-0.0635
  0
LTYPE
  2
PHANTOM
 70
     0
  3
Phantom ______  __  __  ______  __  __  ______
 72
    65
 73
     6
 40
1.27
 49
0.635
 49
-0.127
 49
0.127
 49
-0.127
 49
0.127
 49
-0.127
  0
LTYPE
  2
CENTER
 70
     0
  3
Center ____ _ ____ _ ____ _ ____ _ ____ _ ____
 72
    65
 73
     4
 40
1.016
 49
0.635
 49
-0.127
 49
0.127
 49
-0.127
  0
LTYPE
  2
CENTERX2
 70
     0
  3
Center (2x) ________  __  ________  __  _____
 72
    65
 73
     4
 40
2.032
 49
1.27
 49
-0.254
 49
0.254
 49
-0.254
  0
LTYPE
  2
DOT2
 70
     0
  3
Dot (.5x) ........................................
 72
    65
 73
     2
 40
0.0635
 49
0.0
 49
-0.0635
  0
ENDTAB
  0
TABLE
  2
LAYER
 70
     1
  0
LAYER
  2
0
 70
     0
 62
     7
  6
CONTINUOUS
  0
ENDTAB
  0
TABLE
  2
STYLE
 70
     1
  0
STYLE
  2
STANDARD
 70
     0
 40
0.0
 41
1.0
 50
0.0
 71
     0
 42
0.3175
  3
txt
  4

  0
ENDTAB
  0
TABLE
  2
VIEW
 70
     0
  0
ENDTAB
  0
TABLE
  2
UCS
 70
     0
  0
ENDTAB
  0
TABLE
  2
APPID
 70
     1
  0
APPID
  2
ACAD
 70
     0
  0
ENDTAB
  0
TABLE
  2
DIMSTYLE
 70
     1
  0
DIMSTYLE
  2
ISO-25
 70
     0
  3

  4

  5

  6

  7

 40
1.0
 41
2.5
 42
0.625
 43
3.75
 44
1.25
 45
0.0
 46
0.0
 47
0.0
 48
0.0
140
2.5
141
2.5
142
0.0
143
0.0393700787
144
1.0
145
0.0
146
1.0
147
0.625
 71
     0
 72
     0
 73
     0
 74
     0
 75
     0
 76
     0
 77
     1
 78
     8
170
     0
171
     3
172
     1
173
     0
174
     0
175
     0
176
     0
177
     0
178
     0
  0
ENDTAB
  0
ENDSEC
  0
SECTION
  2
BLOCKS
  0
BLOCK
  8
0
  2
$MODEL_SPACE
 70
     0
 10
0.0
 20
0.0
 30
0.0
  3
$MODEL_SPACE
  1

  0
ENDBLK
  5
21
  8
0
  0
BLOCK
 67
     1
  8
0
  2
$PAPER_SPACE
 70
     0
 10
0.0
 20
0.0
 30
0.0
  3
$PAPER_SPACE
  1

  0
ENDBLK
  5
1D
 67
     1
  8
0
  0
ENDSEC
  0
SECTION
  2
ENTITIES
  0
CIRCLE
  5
44
  8
0
  6
CONTINUOUS
 62
     7
 10
-30.545
 20
0.8396227551
 30
0.0
 40
0.2500000000000021
  0
CIRCLE
  5
45
  8
0
  6
CONTINUOUS
 62
     7
 10
-30.545
 20
-13.7075257919
 30
0.0
 40
0.2500000000000036
  0
CIRCLE
  5
46
  8
0
  6
CONTINUOUS
 62
     7
 10
-19.2075256888
 20
-25.045
 30
0.0
 40
0.25
  0
CIRCLE
  5
47
  8
0
  6
CONTINUOUS
 62
     7
 10
2.5271732748
 20
-25.045
 30
0.0
 40
0.25
  0
CIRCLE
  5
48
  8
0
  6
CONTINUOUS
 62
     7
 10
-27.6782224708
 20
-22.1782224708
 30
0.0
 40
0.2500000000000036
  0
CIRCLE
  5
49
  8
0
  6
CONTINUOUS
 62
     7
 10
10.5271732748
 20
-23.0
 30
0.0
 40
0.25
  0
CIRCLE
  5
4A
  8
0
  6
CONTINUOUS
 62
     7
 10
-28.5
 20
8.8396227551
 30
0.0
 40
0.2500000000000018
  0
LINE
  5
4B
  8
0
  6
CONTINUOUS
 62
     7
 10
-27.5
 20
10.8396227551
 30
0.0
 11
-27.5
 21
-21.5
 31
0.0
  0
LINE
  5
4C
  8
0
  6
CONTINUOUS
 62
     7
 10
-27.5
 20
10.8396227551
 30
0.0
 11
-32.4999999999
 21
10.8396227551
 31
0.0
  0
LINE
  5
4D
  8
0
  6
CONTINUOUS
 62
     7
 10
-32.4999999999
 20
10.8396227551
 30
0.0
 11
-32.4999999999
 21
-21.5
 31
0.0
  0
POLYLINE
  5
4E
  8
0
  6
CONTINUOUS
 62
     7
 66
     1
 10
0.0
 20
0.0
 30
0.0
  0
VERTEX
  5
55
  8
0
  6
CONTINUOUS
 62
     7
 10
-32.5
 20
-21.5
 30
0.0
  0
VERTEX
  5
56
  8
0
  6
CONTINUOUS
 62
     7
 10
-32.4732755278
 20
-21.7159879686
 30
0.0
  0
VERTEX
  5
57
  8
0
  6
CONTINUOUS
 62
     7
 10
-32.4425240386
 20
-21.9313476209
 30
0.0
  0
VERTEX
  5
58
  8
0
  6
CONTINUOUS
 62
     7
 10
-32.4074724709
 20
-22.1458058938
 30
0.0
  0
VERTEX
  5
59
  8
0
  6
CONTINUOUS
 62
     7
 10
-32.3678477633
 20
-22.3590897241
 30
0.0
  0
VERTEX
  5
5A
  8
0
  6
CONTINUOUS
 62
     7
 10
-32.3233768544
 20
-22.5709260486
 30
0.0
  0
VERTEX
  5
5B
  8
0
  6
CONTINUOUS
 62
     7
 10
-32.2737866828
 20
-22.7810418042
 30
0.0
  0
VERTEX
  5
5C
  8
0
  6
CONTINUOUS
 62
     7
 10
-32.218804187
 20
-22.9891639278
 30
0.0
  0
VERTEX
  5
5D
  8
0
  6
CONTINUOUS
 62
     7
 10
-32.1581563057
 20
-23.1950193563
 30
0.0
  0
VERTEX
  5
5E
  8
0
  6
CONTINUOUS
 62
     7
 10
-32.0915699774
 20
-23.3983350264
 30
0.0
  0
VERTEX
  5
5F
  8
0
  6
CONTINUOUS
 62
     7
 10
-32.0187721407
 20
-23.5988378751
 30
0.0
  0
VERTEX
  5
60
  8
0
  6
CONTINUOUS
 62
     7
 10
-31.9394897342
 20
-23.7962548392
 30
0.0
  0
VERTEX
  5
61
  8
0
  6
CONTINUOUS
 62
     7
 10
-31.8534496965
 20
-23.9903128556
 30
0.0
  0
VERTEX
  5
62
  8
0
  6
CONTINUOUS
 62
     7
 10
-31.7603789662
 20
-24.1807388611
 30
0.0
  0
VERTEX
  5
63
  8
0
  6
CONTINUOUS
 62
     7
 10
-31.6600044818
 20
-24.3672597926
 30
0.0
  0
VERTEX
  5
64
  8
0
  6
CONTINUOUS
 62
     7
 10
-31.552053182
 20
-24.5496025869
 30
0.0
  0
VERTEX
  5
65
  8
0
  6
CONTINUOUS
 62
     7
 10
-31.4362520053
 20
-24.7274941809
 30
0.0
  0
VERTEX
  5
66
  8
0
  6
CONTINUOUS
 62
     7
 10
-31.3123278903
 20
-24.9006615115
 30
0.0
  0
VERTEX
  5
67
  8
0
  6
CONTINUOUS
 62
     7
 10
-31.1800077756
 20
-25.0688315156
 30
0.0
  0
VERTEX
  5
68
  8
0
  6
CONTINUOUS
 62
     7
 10
-31.0390185999
 20
-25.2317311299
 30
0.0
  0
VERTEX
  5
69
  8
0
  6
CONTINUOUS
 62
     7
 10
-30.8890873015
 20
-25.3890872913
 30
0.0
  0
VERTEX
  5
6A
  8
0
  6
CONTINUOUS
 62
     7
 10
-30.7317311713
 20
-25.5390186149
 30
0.0
  0
VERTEX
  5
6B
  8
0
  6
CONTINUOUS
 62
     7
 10
-30.5688315831
 20
-25.6800078002
 30
0.0
  0
VERTEX
  5
6C
  8
0
  6
CONTINUOUS
 62
     7
 10
-30.4006616003
 20
-25.8123279106
 30
0.0
  0
VERTEX
  5
6D
  8
0
  6
CONTINUOUS
 62
     7
 10
-30.2274942864
 20
-25.93625201
 30
0.0
  0
VERTEX
  5
6E
  8
0
  6
CONTINUOUS
 62
     7
 10
-30.0496027047
 20
-26.0520531619
 30
0.0
  0
VERTEX
  5
6F
  8
0
  6
CONTINUOUS
 62
     7
 10
-29.8672599188
 20
-26.1600044299
 30
0.0
  0
VERTEX
  5
70
  8
0
  6
CONTINUOUS
 62
     7
 10
-29.6807389922
 20
-26.2603788776
 30
0.0
  0
VERTEX
  5
71
  8
0
  6
CONTINUOUS
 62
     7
 10
-29.4903129881
 20
-26.3534495686
 30
0.0
  0
VERTEX
  5
72
  8
0
  6
CONTINUOUS
 62
     7
 10
-29.2962549702
 20
-26.4394895667
 30
0.0
  0
VERTEX
  5
73
  8
0
  6
CONTINUOUS
 62
     7
 10
-29.0988380018
 20
-26.5187719353
 30
0.0
  0
VERTEX
  5
74
  8
0
  6
CONTINUOUS
 62
     7
 10
-28.8983351464
 20
-26.5915697381
 30
0.0
  0
VERTEX
  5
75
  8
0
  6
CONTINUOUS
 62
     7
 10
-28.6950194673
 20
-26.6581560388
 30
0.0
  0
VERTEX
  5
76
  8
0
  6
CONTINUOUS
 62
     7
 10
-28.4891640282
 20
-26.7188039009
 30
0.0
  0
VERTEX
  5
77
  8
0
  6
CONTINUOUS
 62
     7
 10
-28.2810418924
 20
-26.7737863881
 30
0.0
  0
VERTEX
  5
78
  8
0
  6
CONTINUOUS
 62
     7
 10
-28.0709261233
 20
-26.8233765639
 30
0.0
  0
VERTEX
  5
79
  8
0
  6
CONTINUOUS
 62
     7
 10
-27.8590897845
 20
-26.867847492
 30
0.0
  0
VERTEX
  5
7A
  8
0
  6
CONTINUOUS
 62
     7
 10
-27.6458059393
 20
-26.9074722361
 30
0.0
  0
VERTEX
  5
7B
  8
0
  6
CONTINUOUS
 62
     7
 10
-27.4313476512
 20
-26.9425238597
 30
0.0
  0
VERTEX
  5
7C
  8
0
  6
CONTINUOUS
 62
     7
 10
-27.2159879836
 20
-26.9732754265
 30
0.0
  0
VERTEX
  5
7D
  8
0
  6
CONTINUOUS
 62
     7
 10
-27.0
 20
-27.0
 30
0.0
  0
SEQEND
  5
7E
  8
0
  6
CONTINUOUS
 62
     7
  0
LINE
  5
4F
  8
0
  6
CONTINUOUS
 62
     7
 10
-27.0
 20
-27.0
 30
0.0
 11
12.5271732748
 21
-27.0
 31
0.0
  0
LINE
  5
50
  8
0
  6
CONTINUOUS
 62
     7
 10
12.5271732748
 20
-22.0
 30
0.0
 11
12.5271732748
 21
-27.0
 31
0.0
  0
LINE
  5
51
  8
0
  6
CONTINUOUS
 62
     7
 10
-27.0
 20
-22.0
 30
0.0
 11
12.5271732748
 21
-22.0
 31
0.0
  0
ARC
  5
52
  8
0
  6
CONTINUOUS
 62
     7
 10
-27.0
 20
-21.5
 30
0.0
 40
0.4999999999999929
 50
180.0
 51
270.0
  0
TEXT
  5
53
  8
0
  6
CONTINUOUS
 62
     7
 10
-32.5
 20
-27.55429051
 30
0.0
 40
0.483362
  1
SolidWorks Educational Edition.
 41
0.6774193548
 11
-32.5
 21
-27.725043
 31
0.0
 73
     1
  0
TEXT
  5
54
  8
0
  6
CONTINUOUS
 62
     7
 10
-32.5
 20
-28.27933351
 30
0.0
 40
0.483362
  1
For Instructional Use Only.
 41
0.6611111111
 11
-32.5
 21
-28.450086
 31
0.0
 73
     1
  0
ENDSEC
  0
EOF
